<?xml version="1.0" encoding="utf-8"?>
<!-- Generator: Adobe Illustrator 24.0.1, SVG Export Plug-In . SVG Version: 6.00 Build 0)  -->
<svg version="1.1" id="Layer_1" xmlns="http://www.w3.org/2000/svg" xmlns:xlink="http://www.w3.org/1999/xlink" x="0px" y="0px"
	 viewBox="0 0 512 512" style="enable-background:new 0 0 512 512;" xml:space="preserve">
<style type="text/css">
	.st0{opacity:1.000000e-02;fill:#FFFFFF;}
	.st1{fill:#FFFFFF;}
	.st2{fill:#5ABBE5;}
	.st3{fill:#61CFFF;}
</style>
<g>
	<rect class="st0" width="512" height="512"/>
	<g>
		<path class="st1" d="M256,67.1l189.6,377.8L256,328.7L66.4,444.9L256,67.1 M256,7.1c-22.7,0-43.4,12.8-53.6,33.1L12.7,418
			c-12,24-6.7,53,13,71.1c11.4,10.4,25.9,15.8,40.6,15.8c10.8,0,21.7-2.9,31.3-8.8L256,399l158.3,97c9.7,5.9,20.5,8.8,31.3,8.8
			c14.7,0,29.2-5.4,40.6-15.8c19.7-18.1,25.1-47.1,13-71.1L309.6,40.2C299.4,19.9,278.7,7.1,256,7.1L256,7.1z"/>
	</g>
	<g>
		<polygon class="st2" points="256,67.9 66.4,445.7 256,329.4 445.6,445.7 		"/>
	</g>
	<polygon class="st3" points="256,67.1 66.4,444.9 256,328.7 256,216.7 	"/>
</g>
</svg>
