<svg xmlns="http://www.w3.org/2000/svg" viewBox="0 0 149.45 804.88"><defs><style>.a{fill:#9a1b1f;}.b{fill:#d35227;}.c{fill:#f1f2f2;}.d{fill:#be1e2d;}.e{fill:#2b3990;}.f{fill:#fbb040;}.g{fill:#9b1c1f;}</style></defs><title>IconVessel</title><path class="a" d="M293.84,822.89H241.1s-18.08-115.1-19.73-134,0-485.88,0-485.88-9-30.42,9-85.51S293.84,18,293.84,18Z" transform="translate(-219.11 -18.01)"/><path class="a" d="M293.84,822.89h52.73s18.08-115.1,19.73-134,0-485.88,0-485.88,9-30.42-9.05-85.51S293.84,18,293.84,18Z" transform="translate(-219.11 -18.01)"/><path class="b" d="M293.84,816.86H246.65s-16.19-112.55-17.66-131,0-475.16,0-475.16-8.09-29.74,8.09-83.61,56.76-97.28,56.76-97.28Z" transform="translate(-219.11 -18.01)"/><path class="b" d="M293.84,816.86H341s16.19-112.55,17.66-131,0-475.16,0-475.16,8.09-29.74-8.09-83.61-56.75-97.28-56.75-97.28Z" transform="translate(-219.11 -18.01)"/><rect class="c" x="17.01" y="175.12" width="115.42" height="497.67"/><rect class="d" x="23.03" y="193.75" width="32.59" height="73.44"/><rect class="e" x="58.43" y="193.75" width="32.59" height="73.44"/><rect class="e" x="93.83" y="193.75" width="32.59" height="73.44"/><rect class="e" x="23.03" y="273.77" width="32.59" height="73.44"/><rect class="f" x="58.43" y="273.77" width="32.59" height="73.44"/><rect class="d" x="93.83" y="273.77" width="32.59" height="73.44"/><rect class="e" x="23.59" y="555.01" width="32.59" height="73.44"/><rect class="d" x="58.99" y="555.01" width="32.59" height="73.44"/><rect class="f" x="94.39" y="555.01" width="32.59" height="73.44"/><rect class="e" x="255.65" y="372.9" width="22.44" height="50.57" transform="translate(445.95 113.3) rotate(90)"/><rect class="e" x="255.65" y="397.27" width="22.44" height="50.57" transform="translate(470.32 137.68) rotate(90)"/><rect class="f" x="255.65" y="421.65" width="22.44" height="50.57" transform="translate(494.69 162.05) rotate(90)"/><rect class="e" x="308.46" y="372.9" width="22.44" height="50.57" transform="translate(498.76 60.49) rotate(90)"/><rect class="f" x="308.46" y="397.27" width="22.44" height="50.57" transform="translate(523.13 84.87) rotate(90)"/><rect class="d" x="308.46" y="421.65" width="22.44" height="50.57" transform="translate(547.51 109.24) rotate(90)"/><rect class="e" x="255.65" y="461.46" width="22.44" height="50.57" transform="translate(534.5 201.86) rotate(90)"/><rect class="f" x="255.65" y="485.83" width="22.44" height="50.57" transform="translate(558.87 226.23) rotate(90)"/><rect class="d" x="255.65" y="510.2" width="22.44" height="50.57" transform="translate(583.25 250.61) rotate(90)"/><rect class="e" x="308.46" y="461.46" width="22.44" height="50.57" transform="translate(587.31 149.05) rotate(90)"/><rect class="f" x="308.46" y="485.83" width="22.44" height="50.57" transform="translate(611.69 173.42) rotate(90)"/><rect class="e" x="308.46" y="510.2" width="22.44" height="50.57" transform="translate(636.06 197.8) rotate(90)"/><polygon class="g" points="74.72 54.2 28.52 134.22 120.92 134.22 74.72 54.2"/></svg>