<?xml version="1.0" encoding="utf-8"?>
<!-- Generator: Adobe Illustrator 24.0.1, SVG Export Plug-In . SVG Version: 6.00 Build 0)  -->
<svg version="1.1" id="Layer_1" xmlns="http://www.w3.org/2000/svg" xmlns:xlink="http://www.w3.org/1999/xlink" x="0px" y="0px"
	 viewBox="0 0 512 512" style="enable-background:new 0 0 512 512;" xml:space="preserve">
<style type="text/css">
	.st0{fill:#FFFFFF;}
	.st1{fill:#5ABBE5;}
	.st2{fill:#61CFFF;}
</style>
<g>
	<g>
		<path class="st0" d="M256.1,67.9l189.6,377.8L256.1,329.4L66.5,445.7L256.1,67.9 M256.1,7.9c-22.7,0-43.4,12.8-53.6,33.1
			L12.9,418.8c-12,24-6.7,53,13,71.1c11.4,10.4,25.9,15.8,40.6,15.8c10.8,0,21.7-2.9,31.3-8.8l158.3-97l158.3,97
			c9.7,5.9,20.5,8.8,31.3,8.8c14.7,0,29.2-5.4,40.6-15.8c19.7-18.1,25.1-47.1,13-71.1L309.8,41C299.6,20.7,278.8,7.9,256.1,7.9
			L256.1,7.9z"/>
	</g>
	<g>
		<polygon class="st1" points="256.1,67.9 66.5,445.7 256.1,329.4 445.8,445.7 		"/>
	</g>
	<polygon class="st2" points="256,67.9 66.4,445.7 256,329.4 256,217.5 	"/>
</g>
</svg>
